<?xml version="1.0" encoding="iso-8859-1"?>
<!-- Generator: Adobe Illustrator 18.0.0, SVG Export Plug-In . SVG Version: 6.00 Build 0)  -->
<!DOCTYPE svg PUBLIC "-//W3C//DTD SVG 1.1//EN" "http://www.w3.org/Graphics/SVG/1.1/DTD/svg11.dtd">
<svg version="1.1" id="Capa_1" xmlns="http://www.w3.org/2000/svg" xmlns:xlink="http://www.w3.org/1999/xlink" x="0px" y="0px"
	 viewBox="0 0 491.412 491.412" style="enable-background:new 0 0 491.412 491.412;" xml:space="preserve">
<g>
	<path fill="#ff4561" d="M61.006,113.013h269.508c31.195,0,56.512-25.299,56.512-56.504C387.025,25.299,361.709,0,330.514,0H61.006
		C29.793,0,4.49,25.299,4.49,56.509C4.49,87.714,29.793,113.013,61.006,113.013z"/>
	<path fill="#ff4561" d="M61.006,290.612h146.32c25.637-55.316,81.551-93.845,146.416-93.845c6.793,0,13.445,0.554,20.016,1.375
		c-10.363-12.452-25.781-20.547-43.244-20.547H61.006c-31.213,0-56.516,25.293-56.516,56.504
		C4.49,265.31,29.793,290.612,61.006,290.612z"/>
	<path fill="#ff4561" d="M192.451,355.185H61.006c-31.213,0-56.516,25.299-56.516,56.51c0,31.211,25.303,56.502,56.516,56.502h174.881
		c-26.955-28.857-43.598-67.464-43.598-109.983C192.289,357.193,192.434,356.207,192.451,355.185z"/>
	<path fill="#ff4561" d="M353.742,225.017c-73.439,0-133.197,59.755-133.197,133.197c0,73.439,59.758,133.198,133.197,133.198
		c73.443,0,133.18-59.759,133.18-133.198C486.922,284.771,427.185,225.017,353.742,225.017z M353.742,451.053
		c-51.193,0-92.848-41.652-92.848-92.839c0-51.186,41.654-92.83,92.848-92.83c51.195,0,92.832,41.645,92.832,92.83
		C446.574,409.4,404.938,451.053,353.742,451.053z"/>
	<path fill="#ff4561" d="M409.387,302.56c-9.461-9.46-24.785-9.46-34.234,0l-21.41,21.415L332.33,302.56c-9.461-9.46-24.787-9.46-34.246,0
		c-9.463,9.454-9.463,24.796,0,34.239l21.412,21.415l-21.412,21.412c-9.463,9.454-9.463,24.792,0,34.245
		c4.721,4.732,10.92,7.092,17.123,7.092c6.199,0,12.385-2.359,17.123-7.092l21.412-21.411l21.41,21.411
		c4.727,4.732,10.926,7.092,17.109,7.092c6.201,0,12.402-2.359,17.125-7.092c9.459-9.453,9.459-24.791,0-34.245l-21.412-21.412
		l21.412-21.415C418.846,327.355,418.846,312.014,409.387,302.56z"/>
</g>
<g>
</g>
<g>
</g>
<g>
</g>
<g>
</g>
<g>
</g>
<g>
</g>
<g>
</g>
<g>
</g>
<g>
</g>
<g>
</g>
<g>
</g>
<g>
</g>
<g>
</g>
<g>
</g>
<g>
</g>
</svg>


