<svg id="Layer_1" data-name="Layer 1" xmlns="http://www.w3.org/2000/svg" viewBox="0 0 223.73 223.73"><defs><style>.cls-1{fill:#676778;}.cls-2{fill:#000000;}</style></defs><rect class="cls-1" x="126.99" width="67.01" height="67.01" rx="18"/><rect class="cls-1" x="24.5" y="156.71" width="67.01" height="67.01" rx="18"/><path class="cls-2" d="M505.16,888h-47.5a30.42,30.42,0,0,0-30.42,30.42V966a30.42,30.42,0,0,0,30.42,30.42h47.5a30.28,30.28,0,0,0,11.58-2.3c-3.77-3.71-8.92-6.75-14.11-9.17a81.23,81.23,0,0,0-34.33-7.4H457.66A11.56,11.56,0,0,1,446.11,966v-47.5a11.58,11.58,0,0,1,11.55-11.54h47.5a11.58,11.58,0,0,1,11.55,11.54v38.63a97.83,97.83,0,0,0,13.74,25.8A30.37,30.37,0,0,0,535.58,966v-47.5A30.42,30.42,0,0,0,505.16,888Z" transform="translate(-427.24 -888.03)"/><path class="cls-2" d="M615.33,1003.41h-47.5a30.46,30.46,0,0,0-13.63,3.2q3.54,2.67,7.31,5a74.1,74.1,0,0,0,39,10.68h14.8a11.58,11.58,0,0,1,11.54,11.55v47.5a11.54,11.54,0,0,1-11.54,11.54h-47.5a11.55,11.55,0,0,1-11.55-11.54v-21A66.73,66.73,0,0,0,545,1022.7c-1-1.52-2.13-3-3.27-4.48a30.59,30.59,0,0,0-4.27,15.61v47.5a30.41,30.41,0,0,0,30.42,30.42h47.5a30.42,30.42,0,0,0,30.42-30.42v-47.5A30.42,30.42,0,0,0,615.33,1003.41Z" transform="translate(-427.24 -888.03)"/></svg>